<svg width="48" height="48" viewBox="0 0 48 48" fill="none" xmlns="http://www.w3.org/2000/svg">
<g clip-path="url(#clip0_1_3)">
<path d="M21.3333 2.66667C21.3333 2.66667 21.3333 0 24 0C26.6667 0 26.6667 2.66667 26.6667 2.66667V5.33333C26.6667 5.33333 26.6667 8 24 8C21.3333 8 21.3333 5.33333 21.3333 5.33333V2.66667ZM45.3333 21.3333C45.3333 21.3333 48 21.3333 48 24C48 26.6667 45.3333 26.6667 45.3333 26.6667H42.6667C42.6667 26.6667 40 26.6667 40 24C40 21.3333 42.6667 21.3333 42.6667 21.3333H45.3333ZM5.33333 21.3333C5.33333 21.3333 8 21.3333 8 24C8 26.6667 5.33333 26.6667 5.33333 26.6667H2.66667C2.66667 26.6667 0 26.6667 0 24C0 21.3333 2.66667 21.3333 2.66667 21.3333H5.33333ZM12.1613 9.724C12.1613 9.724 14.0467 11.6093 12.1613 13.4947C10.276 15.38 8.39067 13.4947 8.39067 13.4947L6.504 11.6107C6.504 11.6107 4.61867 9.72533 6.504 7.83867C8.39067 5.95333 10.276 7.83867 10.276 7.83867L12.1613 9.724ZM40.1613 37.724C40.1613 37.724 42.0467 39.6093 40.1613 41.4947C38.276 43.38 36.3907 41.4947 36.3907 41.4947L34.5053 39.6093C34.5053 39.6093 32.62 37.724 34.5053 35.8387C36.3907 33.9533 38.276 35.8387 38.276 35.8387L40.1613 37.724ZM39.6107 13.4947C39.6107 13.4947 37.7253 15.38 35.84 13.4947C33.9547 11.6093 35.84 9.724 35.84 9.724L37.7253 7.83867C37.7253 7.83867 39.6107 5.95333 41.496 7.83867C43.3813 9.724 41.496 11.6093 41.496 11.6093L39.6107 13.4947ZM11.6107 41.4947C11.6107 41.4947 9.72533 43.38 7.84 41.4947C5.95467 39.6093 7.84 37.724 7.84 37.724L9.72533 35.8387C9.72533 35.8387 11.6107 33.9533 13.496 35.8387C15.3813 37.724 13.496 39.6093 13.496 39.6093L11.6107 41.4947ZM21.3333 42.6667C21.3333 42.6667 21.3333 40 24 40C26.6667 40 26.6667 42.6667 26.6667 42.6667V45.3333C26.6667 45.3333 26.6667 48 24 48C21.3333 48 21.3333 45.3333 21.3333 45.3333V42.6667Z" fill="#FFAC33"/>
<path d="M24 37.3333C31.3638 37.3333 37.3333 31.3638 37.3333 24C37.3333 16.6362 31.3638 10.6667 24 10.6667C16.6362 10.6667 10.6667 16.6362 10.6667 24C10.6667 31.3638 16.6362 37.3333 24 37.3333Z" fill="#FFAC33"/>
</g>
<defs>
<clipPath id="clip0_1_3">
<rect width="48" height="48" fill="white"/>
</clipPath>
</defs>
</svg>
