<svg width="48" height="48" viewBox="0 0 48 48" fill="none" xmlns="http://www.w3.org/2000/svg">
<g clip-path="url(#clip0_1_10)">
<path d="M17.3333 2.66667C17.3333 2.66667 17.3333 0 20 0C22.6667 0 22.6667 2.66667 22.6667 2.66667V5.33333C22.6667 5.33333 22.6667 8 20 8C17.3333 8 17.3333 5.33333 17.3333 5.33333V2.66667ZM5.33333 17.3333C5.33333 17.3333 8 17.3333 8 20C8 22.6667 5.33333 22.6667 5.33333 22.6667H2.66667C2.66667 22.6667 0 22.6667 0 20C0 17.3333 2.66667 17.3333 2.66667 17.3333H5.33333ZM10.496 8.05733C10.496 8.05733 12.3813 9.94267 10.496 11.828C8.61067 13.7133 6.72533 11.828 6.72533 11.828L4.83867 9.944C4.83867 9.944 2.95333 8.05867 4.83867 6.172C6.72533 4.28667 8.61067 6.172 8.61067 6.172L10.496 8.05733ZM33.276 11.828C33.276 11.828 31.3907 13.7133 29.5053 11.828C27.62 9.94267 29.5053 8.05733 29.5053 8.05733L31.3907 6.172C31.3907 6.172 33.276 4.28667 35.1613 6.172C37.0467 8.05733 35.1613 9.94267 35.1613 9.94267L33.276 11.828Z" fill="#FFAC33"/>
<path d="M20 30.6667C25.891 30.6667 30.6667 25.891 30.6667 20C30.6667 14.109 25.891 9.33334 20 9.33334C14.109 9.33334 9.33333 14.109 9.33333 20C9.33333 25.891 14.109 30.6667 20 30.6667Z" fill="#FFAC33"/>
<path d="M37.6307 17.0667C36.56 17.0667 35.5307 17.2253 34.5587 17.52C33.4093 14.308 30.2907 12 26.6107 12C22.6653 12 19.3613 14.6547 18.4467 18.2333C17.4355 17.4778 16.2076 17.0687 14.9453 17.0667C11.7227 17.0667 9.112 19.6187 9.112 22.7667C9.112 23.5307 9.272 24.2587 9.55067 24.9253C8.9861 24.7622 8.40227 24.6752 7.81467 24.6667C4.23467 24.6667 1.33333 27.5013 1.33333 31C1.33333 34.4987 4.23467 37.3333 7.81467 37.3333H37.6293C43.3573 37.3333 48 32.7973 48 27.2C48 21.6027 43.3573 17.0667 37.6307 17.0667Z" fill="#E1E8ED"/>
<path d="M15.9987 45.2813L15.848 40.72L12.0227 42.9973C11.5913 43.2282 11.2333 43.5753 10.9892 43.9992C10.745 44.4232 10.6245 44.9071 10.6413 45.396C10.6691 46.1063 10.9748 46.7773 11.4926 47.2643C12.0103 47.7514 12.6987 48.0156 13.4093 48C13.7588 47.9945 14.1036 47.9195 14.4238 47.7793C14.7439 47.6392 15.033 47.4366 15.274 47.1835C15.515 46.9305 15.7032 46.6319 15.8277 46.3053C15.9521 45.9787 16.0102 45.6306 15.9987 45.2813ZM6.69333 43.228L6.54133 38.6667L2.716 40.944C2.28457 41.1748 1.92646 41.5218 1.6823 41.9458C1.43814 42.3698 1.31771 42.8537 1.33467 43.3427C1.36247 44.053 1.66817 44.7239 2.18591 45.211C2.70365 45.698 3.392 45.9622 4.10267 45.9467C4.45223 45.9414 4.79723 45.8665 5.11753 45.7264C5.43783 45.5863 5.72701 45.3838 5.96819 45.1307C6.20937 44.8776 6.3977 44.579 6.52221 44.2523C6.64671 43.9256 6.70489 43.5774 6.69333 43.228ZM25.36 43.948L25.2093 39.3867L21.384 41.664C20.9527 41.8949 20.5947 42.242 20.3505 42.6659C20.1064 43.0899 19.9859 43.5737 20.0027 44.0627C20.0305 44.773 20.3362 45.4439 20.8539 45.931C21.3717 46.4181 22.06 46.6823 22.7707 46.6667C23.1201 46.6612 23.465 46.5862 23.7851 46.446C24.1053 46.3058 24.3943 46.1033 24.6353 45.8502C24.8764 45.5971 25.0646 45.2986 25.189 44.972C25.3134 44.6454 25.3716 44.2973 25.36 43.948ZM33.3307 45.2813L33.18 40.72L29.3547 42.9973C28.9234 43.2282 28.5655 43.5753 28.3215 43.9993C28.0776 44.4233 27.9574 44.9072 27.9747 45.396C28.0025 46.1063 28.3082 46.7773 28.8259 47.2643C29.3437 47.7514 30.032 48.0156 30.7427 48C31.0921 47.9945 31.4369 47.9195 31.7569 47.7793C32.077 47.6391 32.3659 47.4366 32.6069 47.1835C32.8478 46.9304 33.0359 46.6318 33.1602 46.3052C33.2844 45.9786 33.3424 45.6306 33.3307 45.2813ZM41.3587 43.228L41.2067 38.6667L37.3813 40.944C36.9501 41.1748 36.5921 41.5219 36.3482 41.9459C36.1043 42.3699 35.9841 42.8538 36.0013 43.3427C36.0288 44.0531 36.3344 44.7242 36.8522 45.2114C37.37 45.6985 38.0586 45.9626 38.7693 45.9467C39.1188 45.9412 39.4636 45.8662 39.7838 45.726C40.1039 45.5858 40.393 45.3833 40.634 45.1302C40.875 44.8771 41.0632 44.5786 41.1877 44.252C41.3121 43.9254 41.3702 43.5773 41.3587 43.228Z" fill="#5DADEC"/>
</g>
<defs>
<clipPath id="clip0_1_10">
<rect width="48" height="48" fill="white"/>
</clipPath>
</defs>
</svg>
