<svg width="48" height="48" viewBox="0 0 48 48" fill="none" xmlns="http://www.w3.org/2000/svg">
<g clip-path="url(#clip0_1_20)">
<path d="M37.3333 5.33333C36.2333 5.33333 35.1733 5.5 34.1747 5.80933C33.5827 4.11291 32.4779 2.6425 31.0133 1.60169C29.5487 0.560877 27.7968 0.00114893 26 0C21.9413 0 18.544 2.79467 17.6013 6.56133C16.5678 5.76854 15.3026 5.33711 14 5.33333C12.4087 5.33333 10.8826 5.96547 9.75736 7.09069C8.63214 8.21591 8 9.74203 8 11.3333C8 12.1387 8.164 12.904 8.452 13.6053C7.87205 13.4338 7.27139 13.3423 6.66667 13.3333C2.984 13.3333 0 16.3173 0 20C0 23.6827 2.984 26.6667 6.66667 26.6667H37.3333C40.1623 26.6667 42.8754 25.5429 44.8758 23.5425C46.8762 21.5421 48 18.829 48 16C48 13.171 46.8762 10.4579 44.8758 8.45753C42.8754 6.45714 40.1623 5.33333 37.3333 5.33333Z" fill="#E1E8ED"/>
<path d="M8.70667 35.6667C8.61826 35.5136 8.47265 35.4018 8.30187 35.3561C8.13109 35.3103 7.94912 35.3343 7.796 35.4227L5.33333 36.8453V34C5.33333 33.8232 5.2631 33.6536 5.13807 33.5286C5.01305 33.4036 4.84348 33.3333 4.66667 33.3333C4.48986 33.3333 4.32029 33.4036 4.19526 33.5286C4.07024 33.6536 4 33.8232 4 34V36.8467L1.53467 35.424C1.38137 35.3356 1.19924 35.3117 1.02833 35.3576C0.857421 35.4035 0.71174 35.5154 0.623335 35.6687C0.534929 35.822 0.511041 36.0041 0.556925 36.175C0.602808 36.3459 0.714706 36.4916 0.868001 36.58L3.332 38L0.868001 39.4227C0.792097 39.4664 0.725558 39.5247 0.672184 39.5942C0.618809 39.6637 0.579644 39.743 0.556925 39.8277C0.534205 39.9123 0.528376 40.0006 0.539771 40.0874C0.551166 40.1743 0.579561 40.2581 0.623335 40.334C0.667108 40.4099 0.725404 40.4764 0.794893 40.5298C0.864382 40.5832 0.943704 40.6224 1.02833 40.6451C1.11295 40.6678 1.20123 40.6736 1.2881 40.6622C1.37498 40.6508 1.45876 40.6224 1.53467 40.5787L4 39.1547V42C4 42.1768 4.07024 42.3464 4.19526 42.4714C4.32029 42.5964 4.48986 42.6667 4.66667 42.6667C4.84348 42.6667 5.01305 42.5964 5.13807 42.4714C5.2631 42.3464 5.33333 42.1768 5.33333 42V39.156L7.79733 40.5787C7.87324 40.6224 7.95702 40.6508 8.0439 40.6622C8.13078 40.6736 8.21905 40.6678 8.30367 40.6451C8.3883 40.6224 8.46762 40.5832 8.53711 40.5298C8.6066 40.4764 8.66489 40.4099 8.70867 40.334C8.75244 40.2581 8.78084 40.1743 8.79223 40.0874C8.80363 40.0006 8.7978 39.9123 8.77508 39.8277C8.75236 39.743 8.71319 39.6637 8.65982 39.5942C8.60644 39.5247 8.53991 39.4664 8.464 39.4227L6 38L8.464 36.5773C8.53984 36.5336 8.60629 36.4753 8.65955 36.4058C8.71281 36.3363 8.75183 36.257 8.77437 36.1724C8.79692 36.0878 8.80254 35.9996 8.79092 35.9128C8.7793 35.826 8.75067 35.7424 8.70667 35.6667ZM22.04 41C21.9516 40.8469 21.806 40.7352 21.6352 40.6894C21.4644 40.6436 21.2825 40.6676 21.1293 40.756L18.6667 42.1787V39.3333C18.6667 39.1565 18.5964 38.987 18.4714 38.8619C18.3464 38.7369 18.1768 38.6667 18 38.6667C17.8232 38.6667 17.6536 38.7369 17.5286 38.8619C17.4036 38.987 17.3333 39.1565 17.3333 39.3333V42.18L14.868 40.7573C14.7147 40.6689 14.5326 40.645 14.3617 40.6909C14.1908 40.7368 14.0451 40.8487 13.9567 41.002C13.8683 41.1553 13.8444 41.3374 13.8903 41.5083C13.9361 41.6792 14.048 41.8249 14.2013 41.9133L16.6653 43.336L14.2013 44.7587C14.1254 44.8024 14.0589 44.8607 14.0055 44.9302C13.9521 44.9997 13.913 45.079 13.8903 45.1637C13.8444 45.3346 13.8683 45.5167 13.9567 45.67C14.0451 45.8233 14.1908 45.9352 14.3617 45.9811C14.5326 46.027 14.7147 46.0031 14.868 45.9147L17.3333 44.488V47.3333C17.3333 47.5101 17.4036 47.6797 17.5286 47.8047C17.6536 47.9298 17.8232 48 18 48C18.1768 48 18.3464 47.9298 18.4714 47.8047C18.5964 47.6797 18.6667 47.5101 18.6667 47.3333V44.4893L21.1307 45.912C21.2066 45.9558 21.2904 45.9842 21.3772 45.9956C21.4641 46.007 21.5524 46.0011 21.637 45.9784C21.7216 45.9557 21.801 45.9165 21.8704 45.8631C21.9399 45.8098 21.9982 45.7432 22.042 45.6673C22.0858 45.5914 22.1142 45.5076 22.1256 45.4208C22.137 45.3339 22.1311 45.2456 22.1084 45.161C22.0857 45.0764 22.0465 44.997 21.9932 44.9276C21.9398 44.8581 21.8732 44.7998 21.7973 44.756L19.3333 43.3333L21.7973 41.9107C21.8732 41.8669 21.9396 41.8086 21.9929 41.7391C22.0461 41.6696 22.0852 41.5903 22.1077 41.5057C22.1302 41.4211 22.1359 41.3329 22.1243 41.2461C22.1126 41.1593 22.084 41.0757 22.04 41ZM14.6667 36.6667C14.6667 36.8435 14.7369 37.013 14.8619 37.1381C14.987 37.2631 15.1565 37.3333 15.3333 37.3333C15.5101 37.3333 15.6797 37.2631 15.8047 37.1381C15.9298 37.013 16 36.8435 16 36.6667V33.8227L18.464 35.2453C18.5399 35.2891 18.6237 35.3175 18.7106 35.3289C18.7974 35.3403 18.8857 35.3345 18.9703 35.3117C19.055 35.289 19.1343 35.2499 19.2038 35.1965C19.2733 35.1431 19.3316 35.0766 19.3753 35.0007C19.4191 34.9248 19.4475 34.841 19.4589 34.7541C19.4703 34.6672 19.4645 34.579 19.4417 34.4943C19.419 34.4097 19.3799 34.3304 19.3265 34.2609C19.2731 34.1914 19.2066 34.1331 19.1307 34.0893L16.6667 32.6667L19.1307 31.244C19.275 31.1512 19.3782 31.0064 19.4187 30.8397C19.4592 30.6729 19.4339 30.497 19.3482 30.3483C19.2625 30.1996 19.1228 30.0897 18.9582 30.0412C18.7936 29.9928 18.6166 30.0095 18.464 30.088L16 31.512V28.6667C16 28.4899 15.9298 28.3203 15.8047 28.1953C15.6797 28.0702 15.5101 28 15.3333 28C15.1565 28 14.987 28.0702 14.8619 28.1953C14.7369 28.3203 14.6667 28.4899 14.6667 28.6667V31.5133L12.2013 30.0907C12.048 30.0023 11.8659 29.9784 11.695 30.0243C11.5241 30.0701 11.3784 30.182 11.29 30.3353C11.2016 30.4886 11.1777 30.6708 11.2236 30.8417C11.2695 31.0126 11.3814 31.1583 11.5347 31.2467L13.9987 32.6693L11.5347 34.092C11.3814 34.1804 11.2695 34.3261 11.2236 34.497C11.1777 34.6679 11.2016 34.85 11.29 35.0033C11.3784 35.1566 11.5241 35.2685 11.695 35.3144C11.8659 35.3603 12.048 35.3364 12.2013 35.248L14.6667 33.8213V36.6667ZM31.7973 36.5787C31.8732 36.6224 31.957 36.6508 32.0439 36.6622C32.1308 36.6736 32.219 36.6678 32.3037 36.6451C32.3883 36.6224 32.4676 36.5832 32.5371 36.5298C32.6066 36.4764 32.6649 36.4099 32.7087 36.334C32.7524 36.2581 32.7808 36.1743 32.7922 36.0874C32.8036 36.0006 32.7978 35.9123 32.7751 35.8277C32.7524 35.743 32.7132 35.6637 32.6598 35.5942C32.6064 35.5247 32.5399 35.4664 32.464 35.4227L30 34L32.464 32.5773C32.6084 32.4846 32.7115 32.3398 32.752 32.173C32.7925 32.0063 32.7673 31.8303 32.6815 31.6816C32.5958 31.533 32.4562 31.423 32.2915 31.3745C32.1269 31.3261 31.9499 31.3428 31.7973 31.4213L29.3333 32.8453V30C29.3333 29.8232 29.2631 29.6536 29.1381 29.5286C29.013 29.4036 28.8435 29.3333 28.6667 29.3333C28.4899 29.3333 28.3203 29.4036 28.1953 29.5286C28.0702 29.6536 28 29.8232 28 30V32.8467L25.5347 31.424C25.4588 31.3802 25.375 31.3518 25.2881 31.3404C25.2012 31.329 25.113 31.3349 25.0283 31.3576C24.9437 31.3803 24.8644 31.4195 24.7949 31.4728C24.7254 31.5262 24.6671 31.5928 24.6233 31.6687C24.5796 31.7446 24.5512 31.8284 24.5398 31.9152C24.5284 32.0021 24.5342 32.0904 24.5569 32.175C24.5796 32.2596 24.6188 32.339 24.6722 32.4084C24.7256 32.4779 24.7921 32.5362 24.868 32.58L27.332 34.0027L24.868 35.4253C24.7147 35.5137 24.6028 35.6594 24.5569 35.8303C24.511 36.0012 24.5349 36.1834 24.6233 36.3367C24.7117 36.49 24.8574 36.6019 25.0283 36.6477C25.1992 36.6936 25.3814 36.6697 25.5347 36.5813L28 35.1547V38C28 38.1768 28.0702 38.3464 28.1953 38.4714C28.3203 38.5964 28.4899 38.6667 28.6667 38.6667C28.8435 38.6667 29.013 38.5964 29.1381 38.4714C29.2631 38.3464 29.3333 38.1768 29.3333 38V35.156L31.7973 36.5787ZM45.7973 34.0893L43.3333 32.6667L45.7973 31.244C45.9417 31.1512 46.0448 31.0064 46.0853 30.8397C46.1258 30.6729 46.1006 30.497 46.0149 30.3483C45.9292 30.1996 45.7895 30.0897 45.6249 30.0412C45.4602 29.9928 45.2833 30.0095 45.1307 30.088L42.6667 31.512V28.6667C42.6667 28.4899 42.5964 28.3203 42.4714 28.1953C42.3464 28.0702 42.1768 28 42 28C41.8232 28 41.6536 28.0702 41.5286 28.1953C41.4036 28.3203 41.3333 28.4899 41.3333 28.6667V31.5133L38.868 30.0907C38.7147 30.0023 38.5326 29.9784 38.3617 30.0243C38.1908 30.0701 38.0451 30.182 37.9567 30.3353C37.8683 30.4886 37.8444 30.6708 37.8903 30.8417C37.9361 31.0126 38.048 31.1583 38.2013 31.2467L40.6653 32.6693L38.2013 34.092C38.048 34.1804 37.9361 34.3261 37.8903 34.497C37.8444 34.6679 37.8683 34.85 37.9567 35.0033C38.0451 35.1566 38.1908 35.2685 38.3617 35.3144C38.5326 35.3603 38.7147 35.3364 38.868 35.248L41.3333 33.8213V36.6667C41.3333 36.8435 41.4036 37.013 41.5286 37.1381C41.6536 37.2631 41.8232 37.3333 42 37.3333C42.1768 37.3333 42.3464 37.2631 42.4714 37.1381C42.5964 37.013 42.6667 36.8435 42.6667 36.6667V33.8227L45.1307 35.2453C45.2833 35.3238 45.4602 35.3406 45.6249 35.2921C45.7895 35.2437 45.9292 35.1337 46.0149 34.985C46.1006 34.8364 46.1258 34.6604 46.0853 34.4936C46.0448 34.3269 45.9417 34.1821 45.7973 34.0893ZM39.3733 41C39.2849 40.8469 39.1393 40.7352 38.9685 40.6894C38.7978 40.6436 38.6158 40.6676 38.4627 40.756L36 42.1787V39.3333C36 39.1565 35.9298 38.987 35.8047 38.8619C35.6797 38.7369 35.5101 38.6667 35.3333 38.6667C35.1565 38.6667 34.987 38.7369 34.8619 38.8619C34.7369 38.987 34.6667 39.1565 34.6667 39.3333V42.18L32.2013 40.7573C32.048 40.6689 31.8659 40.645 31.695 40.6909C31.5241 40.7368 31.3784 40.8487 31.29 41.002C31.2016 41.1553 31.1777 41.3374 31.2236 41.5083C31.2695 41.6792 31.3814 41.8249 31.5347 41.9133L33.9987 43.336L31.5347 44.7587C31.4588 44.8024 31.3922 44.8607 31.3389 44.9302C31.2855 44.9997 31.2463 45.079 31.2236 45.1637C31.1777 45.3346 31.2016 45.5167 31.29 45.67C31.3784 45.8233 31.5241 45.9352 31.695 45.9811C31.8659 46.027 32.048 46.0031 32.2013 45.9147L34.6667 44.488V47.3333C34.6667 47.5101 34.7369 47.6797 34.8619 47.8047C34.987 47.9298 35.1565 48 35.3333 48C35.5101 48 35.6797 47.9298 35.8047 47.8047C35.9298 47.6797 36 47.5101 36 47.3333V44.4893L38.464 45.912C38.5399 45.9558 38.6237 45.9842 38.7106 45.9956C38.7974 46.007 38.8857 46.0011 38.9703 45.9784C39.055 45.9557 39.1343 45.9165 39.2038 45.8631C39.2733 45.8098 39.3316 45.7432 39.3753 45.6673C39.4191 45.5914 39.4475 45.5076 39.4589 45.4208C39.4703 45.3339 39.4645 45.2456 39.4417 45.161C39.419 45.0764 39.3799 44.997 39.3265 44.9276C39.2731 44.8581 39.2066 44.7998 39.1307 44.756L36.6667 43.3333L39.1307 41.9107C39.2065 41.8669 39.273 41.8086 39.3262 41.7391C39.3795 41.6696 39.4185 41.5903 39.441 41.5057C39.4636 41.4211 39.4692 41.3329 39.4576 41.2461C39.446 41.1593 39.4173 41.0757 39.3733 41Z" fill="#5DADEC"/>
</g>
<defs>
<clipPath id="clip0_1_20">
<rect width="48" height="48" fill="white"/>
</clipPath>
</defs>
</svg>
