<svg width="48" height="48" viewBox="0 0 48 48" fill="none" xmlns="http://www.w3.org/2000/svg">
<path d="M37.3333 5.33333C36.2333 5.33333 35.1733 5.5 34.1747 5.80933C33.5827 4.11291 32.4779 2.6425 31.0133 1.60169C29.5487 0.560877 27.7968 0.00114893 26 0C21.9413 0 18.544 2.79467 17.6013 6.56133C16.5678 5.76854 15.3026 5.33711 14 5.33333C12.4087 5.33333 10.8826 5.96547 9.75736 7.09069C8.63214 8.21591 8 9.74203 8 11.3333C8 12.1387 8.164 12.904 8.452 13.6053C7.87205 13.4338 7.27139 13.3423 6.66667 13.3333C2.984 13.3333 0 16.3173 0 20C0 23.6827 2.984 26.6667 6.66667 26.6667H37.3333C40.1623 26.6667 42.8754 25.5429 44.8758 23.5425C46.8762 21.5421 48 18.829 48 16C48 13.171 46.8762 10.4579 44.8758 8.45753C42.8754 6.45714 40.1623 5.33333 37.3333 5.33333Z" fill="#E1E8ED"/>
<path d="M38 28L28.0508 37.7089C27.2739 38.467 26.0341 38.467 25.2572 37.7089L23.2736 35.7732C22.4967 35.015 21.2583 35.0137 20.4814 35.7718C18.2318 37.967 13.7327 42.3575 10.5308 45.482M10.5308 45.482C13.5166 46.6475 17.6967 45.482 17.6967 45.482M10.5308 45.482C9.33649 43.1511 10.5308 39.0719 10.5308 39.0719" stroke="#FFAC33" stroke-width="2"/>
</svg>
