<svg width="48" height="48" viewBox="0 0 48 48" fill="none" xmlns="http://www.w3.org/2000/svg">
<g clip-path="url(#clip0_1_6)">
<path d="M17.3333 8.00001C17.3333 8.00001 17.3333 5.33334 20 5.33334C22.6667 5.33334 22.6667 8.00001 22.6667 8.00001V10.6667C22.6667 10.6667 22.6667 13.3333 20 13.3333C17.3333 13.3333 17.3333 10.6667 17.3333 10.6667V8.00001ZM5.33333 22.6667C5.33333 22.6667 8 22.6667 8 25.3333C8 28 5.33333 28 5.33333 28H2.66667C2.66667 28 0 28 0 25.3333C0 22.6667 2.66667 22.6667 2.66667 22.6667H5.33333ZM10.496 13.3907C10.496 13.3907 12.3813 15.276 10.496 17.1613C8.61067 19.0467 6.72533 17.1613 6.72533 17.1613L4.83867 15.276C4.83867 15.276 2.95333 13.3907 4.83867 11.504C6.72533 9.61868 8.61067 11.504 8.61067 11.504L10.496 13.3907ZM33.276 17.1613C33.276 17.1613 31.3907 19.0467 29.5053 17.1613C27.62 15.276 29.5053 13.3907 29.5053 13.3907L31.3907 11.5053C31.3907 11.5053 33.276 9.62001 35.1613 11.5053C37.0467 13.3907 35.1613 15.276 35.1613 15.276L33.276 17.1613Z" fill="#FFAC33"/>
<path d="M20 36C25.891 36 30.6667 31.2244 30.6667 25.3333C30.6667 19.4423 25.891 14.6667 20 14.6667C14.109 14.6667 9.33333 19.4423 9.33333 25.3333C9.33333 31.2244 14.109 36 20 36Z" fill="#FFAC33"/>
<path d="M37.6307 22.4C36.56 22.4 35.5307 22.5587 34.5587 22.8533C33.4093 19.6413 30.2907 17.3333 26.6107 17.3333C22.6653 17.3333 19.3613 19.988 18.4467 23.5667C17.4355 22.8112 16.2076 22.402 14.9453 22.4C11.7227 22.4 9.112 24.952 9.112 28.1C9.112 28.864 9.272 29.5907 9.55067 30.2573C8.98604 30.0947 8.40221 30.0081 7.81467 30C4.23467 30 1.33333 32.8347 1.33333 36.3333C1.33333 39.832 4.23467 42.6667 7.81467 42.6667H37.6293C43.3573 42.6667 48 38.1307 48 32.5333C48 26.936 43.3573 22.4 37.6307 22.4Z" fill="#E1E8ED"/>
</g>
<defs>
<clipPath id="clip0_1_6">
<rect width="48" height="48" fill="white"/>
</clipPath>
</defs>
</svg>
