<svg width="48" height="48" viewBox="0 0 48 48" fill="none" xmlns="http://www.w3.org/2000/svg">
<path d="M21.3333 2.66667C21.3333 2.66667 21.3333 0 24 0C26.6667 0 26.6667 2.66667 26.6667 2.66667V5.33333C26.6667 5.33333 26.6667 8 24 8C21.3333 8 21.3333 5.33333 21.3333 5.33333V2.66667ZM45.3333 21.3333C45.3333 21.3333 48 21.3333 48 24C45.3333 24 45.3333 24 45.3333 24H42.6667C42.6667 24 42.6667 24 40 24C40 21.3333 42.6667 21.3333 42.6667 21.3333H45.3333ZM5.33333 21.3333C5.33333 21.3333 8 21.3333 8 24C5.33333 24 5.33333 24 5.33333 24H2.66667C2.66667 24 2.66667 24 0 24C0 21.3333 2.66667 21.3333 2.66667 21.3333H5.33333ZM12.1613 9.724C12.1613 9.724 14.0467 11.6093 12.1613 13.4947C10.276 15.38 8.39067 13.4947 8.39067 13.4947L6.504 11.6107C6.504 11.6107 4.61867 9.72533 6.504 7.83867C8.39067 5.95333 10.276 7.83867 10.276 7.83867L12.1613 9.724ZM39.6107 13.4947C39.6107 13.4947 37.7253 15.38 35.84 13.4947C33.9547 11.6093 35.84 9.724 35.84 9.724L37.7253 7.83867C37.7253 7.83867 39.6107 5.95333 41.496 7.83867C43.3813 9.724 41.496 11.6093 41.496 11.6093L39.6107 13.4947Z" fill="#FFAC33"/>
<path d="M24 24H37.3333C37.3333 16.6362 31.3638 10.6667 24 10.6667C16.6362 10.6667 10.6667 16.6362 10.6667 24H24Z" fill="#FFAC33"/>
<rect y="28" width="48" height="4" rx="2" fill="#E1E8ED"/>
<rect y="36" width="48" height="4" rx="2" fill="#E1E8ED"/>
</svg>
